Anakin Skywalker shares a forbidden romance with Padmé Amidala while his teacher, Obi-Wan Kenobi, makes an investigation of a separatist assassination attempt on Padmé which leads to the discovery of a secret Republican clone army.

Director:
George Lucas
Writers:
George Lucas (story), George Lucas (screenplay), and 1 more credit »
Stars:
Ewan McGregor, Natalie Portman and Hayden Christensen

Media info:

General
Complete name                    : E:\torrent2\Star Wars Sixtology.BluRayrip.mkv.1080p.DTS-5.1\Star.Wars.Episode.2.Attack.of.the.Clones.2002.BluRayrip.mkv.1080p.AVC.DTS-5.1-ACB-Team\Star.Wars.Episode.2.Attack.of.the.Clones.2002.BluRayrip.mkv.1080p.AVC.DTS-5.1-ACB-Team.mkv
Format                           : Matroska
File size                        : 13.3 GiB
Duration                         : 2h 22mn
Overall bit rate                 : 13.4 Mbps
Movie name                       : movie
Encoded date                     : UTC 2011-09-17 06:57:45
Writing application              : mkvmerge v3.2.0 ('Beginnings') built on Feb 12 2010 16:46:17
Writing library                  : libebml v0.7.9 + libmatroska v0.8.1

Video
ID                               : 1
Format                           : AVC
Format/Info                      : Advanced Video Codec
Format profile                   : High@L4.1
Format settings, CABAC           : Yes
Format settings, ReFrames        : 2 frames
Format settings, GOP             : M=4, N=16
Muxing mode                      : Container profile=Unknown@0.0
Codec ID                         : V_MPEG4/ISO/AVC
Duration                         : 2h 22mn
Bit rate mode                    : Variable
Bit rate                         : 11.5 Mbps
Maximum bit rate                 : 35.0 Mbps
Width                            : 1 920 pixels
Height                           : 1 080 pixels
Display aspect ratio             : 16:9
Frame rate                       : 23.976 fps
Color space                      : YUV
Chroma subsampling               : 4:2:0
Bit depth                        : 8 bits
Scan type                        : Progressive
Bits/(Pixel*Frame)               : 0.231
Stream size                      : 11.6 GiB (87%)
Writing library                  : x264 core 116 r2057 0ba8a9c
Encoding settings                : cabac=1 / ref=1 / deblock=1:0:0 / analyse=0x3:0x3 / me=dia / subme=1 / psy=1 / psy_rd=1.00:0.00 / mixed_ref=0 / me_range=16 / chroma_me=1 / trellis=0 / 8x8dct=1 / cqm=0 / deadzone=21,11 / fast_pskip=1 / chroma_qp_offset=0 / threads=3 / sliced_threads=0 / slices=4 / nr=0 / decimate=1 / interlaced=0 / bluray_compat=1 / constrained_intra=0 / bframes=3 / b_pyramid=0 / b_adapt=1 / b_bias=0 / direct=1 / weightb=1 / open_gop=0 / weightp=1 / keyint=24 / keyint_min=1 / scenecut=40 / intra_refresh=0 / rc_lookahead=0 / rc=abr / mbtree=0 / bitrate=11476 / ratetol=1.0 / qcomp=0.60 / qpmin=0 / qpmax=69 / qpstep=4 / vbv_maxrate=35000 / vbv_bufsize=30000 / nal_hrd=vbr / ip_ratio=1.10 / pb_ratio=1.10 / aq=1:1.00

Audio
ID                               : 2
Format                           : DTS
Format/Info                      : Digital Theater Systems
Format profile                   : ES
Codec ID                         : A_DTS
Duration                         : 2h 22mn
Bit rate mode                    : Constant
Bit rate                         : 1 510 Kbps
Channel(s)                       : 7 channels
Channel positions                : Front: L C R, Side: L R, Back: C, LFE
Sampling rate                    : 48.0 KHz
Bit depth                        : 24 bits
Stream size                      : 1.50 GiB (11%)
Language                         : English

Text #1
ID                               : 3
Format                           : VobSub
Muxing mode                      : zlib
Codec ID                         : S_VOBSUB
Codec ID/Info                    : The same subtitle format used on DVDs
Language                         : English

Text #2
ID                               : 4
Format                           : VobSub
Muxing mode                      : zlib
Codec ID                         : S_VOBSUB
Codec ID/Info                    : The same subtitle format used on DVDs
Language                         : Japanese

Text #3
ID                               : 5
Format                           : VobSub
Muxing mode                      : zlib
Codec ID                         : S_VOBSUB
Codec ID/Info                    : The same subtitle format used on DVDs
Language                         : Chinese

Text #4
ID                               : 6
Format                           : VobSub
Muxing mode                      : zlib
Codec ID                         : S_VOBSUB
Codec ID/Info                    : The same subtitle format used on DVDs
Language                         : Korean

Text #5
ID                               : 7
Format                           : VobSub
Muxing mode                      : zlib
Codec ID                         : S_VOBSUB
Codec ID/Info                    : The same subtitle format used on DVDs
Language                         : Thai

Text #6
ID                               : 8
Format                           : UTF-8
Codec ID                         : S_TEXT/UTF8
Codec ID/Info                    : UTF-8 Plain Text
Language                         : Dutch

Menu
00:00:00.000                     : en:00:00:00.000
00:00:23.440                     : en:00:00:23.440
00:01:50.527                     : en:00:01:50.527
00:04:22.095                     : en:00:04:22.095
00:07:00.002                     : en:00:07:00.002
00:10:28.961                     : en:00:10:28.961
00:14:19.900                     : en:00:14:19.900
00:21:35.293                     : en:00:21:35.293
00:24:48.236                     : en:00:24:48.236
00:29:45.867                     : en:00:29:45.867
00:31:33.474                     : en:00:31:33.474
00:33:48.526                     : en:00:33:48.526
00:34:50.505                     : en:00:34:50.505
00:36:05.121                     : en:00:36:05.121
00:38:25.928                     : en:00:38:25.928
00:39:25.362                     : en:00:39:25.362
00:40:56.370                     : en:00:40:56.370
00:42:12.780                     : en:00:42:12.780
00:44:02.014                     : en:00:44:02.014
00:45:50.414                     : en:00:45:50.414
00:47:50.075                     : en:00:47:50.075
00:50:21.017                     : en:00:50:21.017
00:53:01.428                     : en:00:53:01.428
00:56:44.818                     : en:00:56:44.818
00:58:56.699                     : en:00:58:56.699
01:00:46.059                     : en:01:00:46.059
01:03:41.192                     : en:01:03:41.192
01:06:24.355                     : en:01:06:24.355
01:11:18.774                     : en:01:11:18.774
01:14:01.353                     : en:01:14:01.353
01:15:23.477                     : en:01:15:23.477
01:17:48.872                     : en:01:17:48.872
01:21:40.353                     : en:01:21:40.353
01:23:46.896                     : en:01:23:46.896
01:28:10.159                     : en:01:28:10.159
01:30:52.905                     : en:01:30:52.905
01:33:38.487                     : en:01:33:38.487
01:35:27.847                     : en:01:35:27.847
01:42:44.867                     : en:01:42:44.867
01:45:14.016                     : en:01:45:14.016
01:49:53.628                     : en:01:49:53.628
01:56:22.475                     : en:01:56:22.475
01:57:47.602                     : en:01:57:47.602
02:00:29.180                     : en:02:00:29.180
02:04:48.981                     : en:02:04:48.981
02:07:41.945                     : en:02:07:41.945
02:11:23.667                     : en:02:11:23.667
02:12:54.883                     : en:02:12:54.883
02:14:49.247                     : en:02:14:49.247
02:15:54.938                     : en:02:15:54.938

 